<?xml version="1.0" standalone="no"?><!DOCTYPE svg PUBLIC "-//W3C//DTD SVG 1.1//EN" "http://www.w3.org/Graphics/SVG/1.1/DTD/svg11.dtd"><svg t="1535355353960" class="icon" style="" viewBox="0 0 1024 1024" version="1.1" xmlns="http://www.w3.org/2000/svg" p-id="2744" xmlns:xlink="http://www.w3.org/1999/xlink" width="64" height="64"><defs><style type="text/css"></style></defs><path d="M660.2 787.7c-44.2 0-82.8-8.5-114.8-25.1l27.8-53.2c23.3 12.2 52.5 18.3 87 18.3 57 0 110.3-16.6 150-46.8 37.3-28.3 57.8-65.1 57.8-103.7s-20.5-75.4-57.8-103.7c-39.7-30.1-93-46.8-150-46.8-10 0-19.7 0.5-28.8 1.6l-6.8-59.6c11.4-1.3 23.3-2 35.6-2 70 0 136.2 20.9 186.2 59 25.2 19.1 45 41.5 59 66.7 14.9 26.8 22.5 55.3 22.5 84.8s-7.6 58.1-22.5 84.8c-14 25.1-33.9 47.6-59 66.7-50.1 38.1-116.2 59-186.2 59z" p-id="2745"></path><path d="M409.8 815c-77.4 0-143-22.5-189.7-64.9-25.8-23.5-45.7-52.9-59.2-87.4C147 627.1 140 585.8 140 539.9c0-90.9 27.1-176.6 76.3-241.5 24.5-32.3 53.3-57.8 85.5-75.8 34.1-19 70.4-28.6 107.9-28.6s73.8 9.6 107.9 28.6c32.2 17.9 61 43.4 85.5 75.8 49.2 64.8 76.3 150.6 76.3 241.5 0 45.9-7 87.2-20.9 122.8-13.4 34.5-33.3 63.9-59.2 87.4-46.5 42.4-112.1 64.9-189.5 64.9z m0-560.9c-54.4 0-106.2 28.6-145.6 80.6-41.4 54.5-64.2 127.4-64.2 205.2C200 727.1 331.4 755 409.8 755s209.8-27.9 209.8-215.1c0-77.9-22.8-150.7-64.1-205.2-39.6-52-91.3-80.6-145.7-80.6z" p-id="2746"></path><path d="M646.8 657.4c-3.2 0-6.4-1-9.1-3.1l-69.3-53L468 637.5c-4.2 1.5-8.8 1.1-12.6-1.1L378.6 592l-51.4 32c-3.8 2.4-8.4 2.9-12.7 1.5-4.2-1.4-7.6-4.6-9.2-8.8l-44.5-114.2-62.5 41.1c-6.9 4.6-16.2 2.6-20.8-4.3-4.5-6.9-2.6-16.2 4.3-20.8l78-51.2c3.8-2.5 8.5-3.1 12.8-1.8 4.3 1.4 7.8 4.6 9.4 8.8L326.7 589l43.7-27.2c4.7-2.9 10.6-3 15.4-0.2l78.6 45.5 101.5-36.6c4.8-1.7 10.1-0.9 14.2 2.2l75.8 57.9c6.6 5 7.8 14.4 2.8 21-3 3.8-7.4 5.8-11.9 5.8z" p-id="2747"></path><path d="M381.6 682c-5.3 0-10.5-2.8-13.2-7.9-3.9-7.3-1.2-16.4 6.1-20.3l82.4-44.6c7.3-3.9 16.4-1.2 20.3 6.1 3.9 7.3 1.2 16.4-6.1 20.3l-82.4 44.6c-2.2 1.2-4.6 1.8-7.1 1.8zM721 538.7h-76.4c-8.3 0-15-6.7-15-15s6.7-15 15-15H721c8.3 0 15 6.7 15 15s-6.7 15-15 15zM714 483.7h-69.4c-8.3 0-15-6.7-15-15s6.7-15 15-15H714c8.3 0 15 6.7 15 15s-6.7 15-15 15zM718 593.7h-73.4c-8.3 0-15-6.7-15-15s6.7-15 15-15H718c8.3 0 15 6.7 15 15s-6.7 15-15 15zM708 648.7h-63.4c-8.3 0-15-6.7-15-15s6.7-15 15-15H708c8.3 0 15 6.7 15 15s-6.7 15-15 15zM679 703.7h-34.4c-8.3 0-15-6.7-15-15s6.7-15 15-15H679c8.3 0 15 6.7 15 15s-6.7 15-15 15zM275 393h-63c-8.3 0-15-6.7-15-15s6.7-15 15-15h63c8.3 0 15 6.7 15 15s-6.7 15-15 15zM304 338h-72c-8.3 0-15-6.7-15-15s6.7-15 15-15h72c8.3 0 15 6.7 15 15s-6.7 15-15 15zM255 448h-43c-8.3 0-15-6.7-15-15s6.7-15 15-15h43c8.3 0 15 6.7 15 15s-6.7 15-15 15zM252 643h-60c-8.3 0-15-6.7-15-15s6.7-15 15-15h60c8.3 0 15 6.7 15 15s-6.7 15-15 15zM272 698h-80c-8.3 0-15-6.7-15-15s6.7-15 15-15h80c8.3 0 15 6.7 15 15s-6.7 15-15 15zM244 588h-52c-8.3 0-15-6.7-15-15s6.7-15 15-15h52c8.3 0 15 6.7 15 15s-6.7 15-15 15z" p-id="2748"></path></svg>