<?xml version="1.0" standalone="no"?><!DOCTYPE svg PUBLIC "-//W3C//DTD SVG 1.1//EN" "http://www.w3.org/Graphics/SVG/1.1/DTD/svg11.dtd"><svg t="1536045032009" class="icon" style="" viewBox="0 0 1024 1024" version="1.1" xmlns="http://www.w3.org/2000/svg" p-id="1412" xmlns:xlink="http://www.w3.org/1999/xlink" width="64" height="64"><defs><style type="text/css"></style></defs><path d="M289.224706 957.539332c-61.419861 0-111.381763-50.001811-111.381763-111.384833L177.842942 177.847547c0-61.422931 49.962925-111.385856 111.381763-111.385856l259.899308 0c20.521383 0 37.128619 16.607236 37.128619 37.128619 0 20.449751-16.607236 37.128619-37.128619 37.128619l-259.899308 0c-20.484543 0-37.127595 16.678868-37.127595 37.129642L252.09711 846.154499c0 20.447704 16.643052 37.126572 37.127595 37.126572 20.524452 0 37.129642 16.607236 37.129642 37.128619C326.353324 940.858418 309.748135 957.539332 289.224706 957.539332" p-id="1413"></path><path d="M734.763015 957.539332 437.739181 957.539332c-20.524452 0-37.128619-16.680914-37.128619-37.128619 0-20.522406 16.60519-37.128619 37.128619-37.128619l297.023834 0c20.48659 0 37.128619-16.678868 37.128619-37.126572L771.891633 363.486548c0-20.521383 16.607236-37.128619 37.128619-37.128619 20.520359 0 37.128619 16.607236 37.128619 37.128619L846.148871 846.154499C846.149894 907.536498 796.185946 957.539332 734.763015 957.539332" p-id="1414"></path><path d="M809.021276 400.614144 623.378182 400.614144c-61.418838 0-111.381763-49.962925-111.381763-111.381763L511.996418 103.589286c0-15.008832 9.026584-28.571732 22.914896-34.299177 13.923104-5.730515 29.838585-2.574638 40.46562 8.04728l259.895215 259.897262c10.622942 10.587126 13.814634 26.579355 8.048303 40.463574C837.594031 391.551744 824.029084 400.614144 809.021276 400.614144M586.252633 193.219653l0 96.012727c0 20.446681 16.642029 37.125549 37.124526 37.125549l96.011704 0L586.252633 193.219653z" p-id="1415"></path><path d="M623.378182 697.643094c0 20.449751-16.638959 37.124526-37.124526 37.124526L363.481943 734.76762c-20.484543 0-37.127595-16.674775-37.127595-37.124526 0-20.524452 16.643052-37.128619 37.127595-37.128619l222.771713 0C606.739223 660.514475 623.378182 677.119665 623.378182 697.643094" p-id="1416"></path><path d="M697.636442 549.127595c0 20.449751-16.642029 37.128619-37.129642 37.128619L363.481943 586.256214c-20.484543 0-37.127595-16.678868-37.127595-37.128619 0-20.523429 16.643052-37.127595 37.127595-37.127595l297.024857 0C680.994414 512 697.636442 528.60519 697.636442 549.127595" p-id="1417"></path></svg>